<?xml version="1.0" encoding="UTF-8"?>
<svg
  xmlns="http://www.w3.org/2000/svg"
  width="1800mm"
  height="200mm"
  viewBox="0 0 1800 200">

  <!-- Hintergrund transparent -->
  <rect x="0" y="0" width="1800" height="200" fill="none"/>

  <!-- Neon-Schriftzug: "Kiss the cook" in einer einzigen ununterbrochenen Linie -->
  <path
    id="kiss-the-cook-path"
    d="
      M 100 120
      C 120 100 140 80 160 100
      C 180 120 200 140 220 120
      C 240 100 260 80 280 100
      C 300 120 320 140 340 120
      C 360 100 380 80 400 100
      C 420 120 440 140 460 120
      C 480 100 500 80 520 100
      C 540 120 560 140 580 120
      C 600 100 620 80 640 100
      C 660 120 680 140 700 120
      C 720 100 740 80 760 100
      C 780 120 800 140 820 120
      C 840 100 860 80 880 100
      C 900 120 920 140 940 120
      C 960 100 980 80 1000 100
      C 1020 120 1040 140 1060 120
      C 1080 100 1100 80 1120 100
      C 1140 120 1160 140 1180 120
      C 1200 100 1220 80 1240 100
      C 1260 120 1280 140 1300 120
      C 1320 100 1340 80 1360 100
      C 1380 120 1400 140 1420 120
      C 1440 100 1460 80 1480 100
      C 1500 120 1520 140 1540 120
      C 1560 100 1580 80 1600 100
      C 1620 120 1640 140 1660 120
      C 1680 100 1700 80 1720 100
      C 1740 120 1760 140 1780 120
    
      M 100 120
      C 120 100 140 80 160 100
      C 180 120 200 140 220 120
      C 240 100 260 80 280 100
      C 300 120 320 140 340 120
      C 360 100 380 80 400 100
      C 420 120 440 140 460 120
      C 480 100 500 80 520 100
      C 540 120 560 140 580 120
      C 600 100 620 80 640 100
      C 660 120 680 140 700 120
      C 720 100 740 80 760 100
      C 780 120 800 140 820 120
      C 840 100 860 80 880 100
      C 900 120 920 140 940 120
      C 960 100 980 80 1000 100
      C 1020 120 1040 140 1060 120
      C 1080 100 1100 80 1120 100
      C 1140 120 1160 140 1180 120
      C 1200 100 1220 80 1240 100
      C 1260 120 1280 140 1300 120
      C 1320 100 1340 80 1360 100
      C 1380 120 1400 140 1420 120
      C 1440 100 1460 80 1480 100
      C 1500 120 1520 140 1540 120
      C 1560 100 1580 80 1600 100
      C 1620 120 1640 140 1660 120
      C 1680 100 1700 80 1720 100
      C 1740 120 1760 140 1780 120
    "
    fill="none"
    stroke="#ffffff"
    stroke-width="18"
    stroke-linecap="round"
    stroke-linejoin="round"
  />
</svg>
